# xmcd
#
# Track frame offsets: 
#        182
#        12680
#        24660
#        38127
#        50527
#        64705
#        78792
#        93447
#        105342
#        117155
#        130870
#        143812
#        155532
#        169997
#        183737
#        196707
#        208755
#        223327
#        237637
#        250122
#        265372
#        276932
#        288145
#        301072
#        314235
#        328635
#
# Disc length: 4538 seconds
#
# Revision: 14
# Processed by: cddbd v1.5.2PL0 Copyright (c) Steve Scherf et al.
# Submitted via: ExactAudioCopyFreeDBPlugin 1.0
#
DISCID=8511b81a
DTITLE=Various Artist - Atlantic Rhythm and Blues, 1947-1974
DYEAR=1991
DGENRE=Rhythm and Blues
TTITLE0=Joe Morris - Lowe Groovin'
TTITLE1=Tiny Grimes - That Old Black Magic
TTITLE2=Tiny Grimes - Annie Laurie
TTITLE3=Tiny Grimes - Midnight Special
TTITLE4=Joe Morris - The Applejack
TTITLE5=Frank Culley - Cole Slaw
TTITLE6=Stick McGhee - Drinkin' Wine Spo-Dee-O-Dee
TTITLE7=Ruth Brown - So Long
TTITLE8=Ruth Brown - I'll Get Along Somehow
TTITLE9=Professor Longhair - Hey Little Girl
TTITLE10=Professor Longhair - Mardi Gras in New Orleans
TTITLE11=Harry Van Walls - Tee Nah Nah
TTITLE12=Al Hibbler - Danny Boy
TTITLE13=Joe Morris - Anytime, Anyplace, Anywhere
TTITLE14=Ruth Brown - Teardrops from My Eyes
TTITLE15=Stick McGhee - One Monkey Don't Stop No Show
TTITLE16=The Clovers - Don't You Know I Love You
TTITLE17=The Cardinals - Shouldn't I Know
TTITLE18=Big Joe Turner - The Chill Is On
TTITLE19=Joe Turner - Chains of Love
TTITLE20=The Clovers - Fool, Fool, Fool
TTITLE21=The Clovers - One Mint Julep
TTITLE22=The Cardinals - Wheel of Fortune
TTITLE23=Joe Turner - Sweet Sixteen
TTITLE24=Ruth Brown - 5-10-15 Hours
TTITLE25=Willis Jackson - Gator's Groove
EXTD=
EXTT0=
EXTT1=
EXTT2=
EXTT3=
EXTT4=
EXTT5=
EXTT6=
EXTT7=
EXTT8=
EXTT9=
EXTT10=
EXTT11=
EXTT12=
EXTT13=
EXTT14=
EXTT15=
EXTT16=
EXTT17=
EXTT18=
EXTT19=
EXTT20=
EXTT21=
EXTT22=
EXTT23=
EXTT24=
EXTT25=
PLAYORDER=
